<svg width="64" height="16" viewBox="0 0 64 16" fill="none" xmlns="http://www.w3.org/2000/svg">
<path d="M5.304 15.816C4.744 15.816 4.152 15.728 3.528 15.552C2.92 15.392 2.376 15.12 1.896 14.736C1.432 14.352 1.12 13.84 0.96 13.2C0.944 13.12 0.928 13.032 0.912 12.936C0.912 12.84 0.912 12.744 0.912 12.648C0.912 12.152 1.024 11.672 1.248 11.208C1.472 10.744 1.744 10.392 2.064 10.152H2.088C2.12 10.152 2.16 10.192 2.208 10.272C2.272 10.336 2.272 10.384 2.208 10.416C2.048 10.576 1.928 10.76 1.848 10.968C1.784 11.16 1.752 11.368 1.752 11.592C1.752 11.896 1.8 12.208 1.896 12.528C2.008 12.832 2.144 13.096 2.304 13.32C2.704 13.88 3.256 14.328 3.96 14.664C4.68 14.984 5.384 15.144 6.072 15.144C7.016 15.144 7.744 14.864 8.256 14.304C8.784 13.744 9.048 13.056 9.048 12.24C9.048 11.744 8.952 11.248 8.76 10.752C8.504 10.064 8.16 9.392 7.728 8.736C7.312 8.064 6.928 7.408 6.576 6.768C6.272 6.192 6.12 5.608 6.12 5.016C6.12 4.392 6.312 3.792 6.696 3.216C7.08 2.704 7.584 2.296 8.208 1.992C8.848 1.672 9.496 1.512 10.152 1.512C10.6 1.512 11.032 1.592 11.448 1.752C11.864 1.912 12.24 2.176 12.576 2.544C12.672 2.688 12.72 2.872 12.72 3.096C12.72 3.416 12.656 3.664 12.528 3.84C12.384 4.048 12.224 4.32 12.048 4.656C11.872 4.992 11.768 5.224 11.736 5.352C11.704 5.368 11.624 5.4 11.496 5.448C11.384 5.48 11.312 5.472 11.28 5.424C11.344 5.296 11.432 5.064 11.544 4.728C11.656 4.392 11.712 4.088 11.712 3.816C11.712 3.64 11.704 3.448 11.688 3.24C11.688 3.016 11.584 2.824 11.376 2.664C11.184 2.488 10.936 2.336 10.632 2.208C10.328 2.08 9.96 2.016 9.528 2.016C8.648 2.016 7.976 2.272 7.512 2.784C7.048 3.296 6.816 3.856 6.816 4.464C6.816 4.768 6.88 5.072 7.008 5.376C7.248 5.952 7.584 6.496 8.016 7.008C8.448 7.52 8.872 8.048 9.288 8.592C9.72 9.12 10.056 9.696 10.296 10.32C10.456 10.736 10.536 11.16 10.536 11.592C10.536 12.216 10.376 12.784 10.056 13.296C9.752 13.808 9.336 14.256 8.808 14.64C8.296 15.008 7.736 15.296 7.128 15.504C6.52 15.712 5.912 15.816 5.304 15.816ZM15.1961 15.144C14.9561 15.144 14.7401 15.096 14.5481 15C14.3721 14.904 14.2841 14.728 14.2841 14.472C14.2841 14.328 14.3161 14.168 14.3801 13.992C14.5241 13.624 14.7161 13.176 14.9561 12.648C15.2121 12.12 15.4681 11.608 15.7241 11.112C15.9801 10.6 16.1801 10.184 16.3241 9.864C16.4201 9.672 16.4681 9.536 16.4681 9.456C16.4681 9.312 16.3881 9.28 16.2281 9.36C16.0681 9.44 15.8921 9.552 15.7001 9.696C15.5081 9.84 15.3641 9.952 15.2681 10.032C14.8521 10.416 14.4121 10.872 13.9481 11.4C13.5001 11.912 13.0841 12.456 12.7001 13.032C12.3321 13.592 12.0441 14.152 11.8361 14.712C11.8201 14.808 11.7161 14.888 11.5241 14.952C11.3321 15.016 11.1561 15.048 10.9961 15.048C10.7401 15.048 10.6441 14.968 10.7081 14.808C11.0761 13.976 11.4521 13.056 11.8361 12.048C12.2361 11.04 12.6841 10.008 13.1801 8.952C13.5481 8.152 13.9561 7.328 14.4041 6.48C14.8681 5.632 15.3801 4.824 15.9401 4.056C16.5001 3.272 17.1161 2.584 17.7881 1.992C18.3801 1.48 19.0281 1.064 19.7321 0.743999C20.4521 0.408 21.2281 0.24 22.0601 0.24C22.4281 0.24 22.7481 0.32 23.0201 0.48C23.2921 0.624 23.4441 0.888 23.4761 1.272V1.488C23.4761 1.712 23.4521 1.936 23.4041 2.16C23.3881 2.224 23.3241 2.256 23.2121 2.256C23.1641 2.256 23.1481 2.248 23.1641 2.232C23.2281 1.816 23.1161 1.52 22.8281 1.344C22.5561 1.168 22.2041 1.08 21.7721 1.08C20.9881 1.08 20.2681 1.224 19.6121 1.512C18.9561 1.8 18.3481 2.184 17.7881 2.664C16.9241 3.416 16.1721 4.376 15.5321 5.544C14.8921 6.712 14.3401 7.904 13.8761 9.12C13.6521 9.712 13.4281 10.304 13.2041 10.896C12.9961 11.488 12.7961 12.04 12.6041 12.552C13.3241 11.592 14.0121 10.768 14.6681 10.08C15.3401 9.392 15.9241 8.904 16.4201 8.616C16.8201 8.392 17.1801 8.28 17.5001 8.28C17.8041 8.28 17.9561 8.408 17.9561 8.664C17.9561 8.888 17.8441 9.176 17.6201 9.528C17.5081 9.704 17.3321 10 17.0921 10.416C16.8681 10.832 16.6281 11.288 16.3721 11.784C16.1321 12.264 15.9241 12.712 15.7481 13.128C15.5721 13.544 15.4841 13.848 15.4841 14.04C15.4841 14.296 15.5961 14.424 15.8201 14.424C15.9481 14.424 16.0921 14.384 16.2521 14.304C16.4281 14.224 16.5561 14.152 16.6361 14.088C17.0681 13.768 17.4921 13.376 17.9081 12.912C18.3241 12.448 18.6761 12.04 18.9641 11.688C18.9801 11.672 18.9881 11.696 18.9881 11.76C18.9881 11.824 18.9721 11.92 18.9401 12.048C18.9241 12.16 18.8761 12.256 18.7961 12.336C18.6201 12.576 18.4361 12.808 18.2441 13.032C18.0681 13.24 17.8921 13.448 17.7161 13.656C17.4121 14.008 17.0441 14.344 16.6121 14.664C16.1961 14.984 15.7241 15.144 15.1961 15.144ZM19.0828 15.048C18.8268 15.048 18.5948 15 18.3868 14.904C18.1948 14.792 18.0988 14.56 18.0988 14.208C18.0988 13.648 18.2428 13.088 18.5308 12.528C18.8188 11.952 19.1148 11.448 19.4188 11.016C19.6908 10.648 19.9948 10.304 20.3308 9.984C20.6828 9.648 21.0588 9.36 21.4588 9.12C21.7148 8.96 22.0588 8.792 22.4908 8.616C22.9388 8.424 23.3148 8.328 23.6188 8.328C23.8748 8.328 24.0988 8.4 24.2908 8.544C24.4828 8.672 24.5788 8.912 24.5788 9.264C24.5788 9.808 24.4348 10.368 24.1468 10.944C23.8748 11.504 23.5868 12 23.2828 12.432C23.1388 12.624 22.9948 12.808 22.8508 12.984C22.7068 13.144 22.5468 13.312 22.3708 13.488C22.9628 13.488 23.5068 13.32 24.0028 12.984C24.4988 12.632 24.9308 12.208 25.2988 11.712L25.3468 11.664C25.3948 11.664 25.4188 11.712 25.4188 11.808C25.4188 11.92 25.3868 12.024 25.3228 12.12C25.0028 12.568 24.6028 12.968 24.1228 13.32C23.6428 13.656 23.0988 13.824 22.4908 13.824C22.4268 13.824 22.3628 13.824 22.2988 13.824C22.2348 13.824 22.1708 13.816 22.1068 13.8C21.2108 14.632 20.2028 15.048 19.0828 15.048ZM19.7068 14.64C19.9308 14.64 20.1708 14.56 20.4268 14.4C20.6988 14.24 20.9068 14.088 21.0508 13.944C21.3228 13.672 21.5708 13.384 21.7948 13.08C22.0188 12.76 22.2268 12.44 22.4188 12.12C22.6428 11.736 22.8668 11.28 23.0908 10.752C23.3148 10.224 23.4268 9.728 23.4268 9.264C23.4268 8.896 23.2988 8.712 23.0428 8.712C22.8348 8.712 22.5788 8.8 22.2748 8.976C21.9868 9.152 21.7708 9.312 21.6268 9.456C21.0828 10.016 20.6268 10.624 20.2588 11.28C20.0508 11.648 19.8268 12.08 19.5868 12.576C19.3468 13.072 19.2268 13.528 19.2268 13.944C19.2268 14.008 19.2268 14.072 19.2268 14.136C19.2428 14.184 19.2588 14.24 19.2748 14.304C19.3388 14.528 19.4828 14.64 19.7068 14.64ZM25.1944 15.336C25.1304 15.336 25.1304 15.272 25.1944 15.144C25.2744 15 25.3464 14.84 25.4104 14.664C25.4904 14.488 25.5704 14.296 25.6504 14.088C25.8104 13.704 25.9864 13.272 26.1784 12.792C26.3704 12.312 26.5544 11.848 26.7304 11.4C26.9064 10.936 27.0584 10.544 27.1864 10.224C27.3304 9.888 27.4264 9.672 27.4744 9.576C27.2504 9.816 26.9784 10.12 26.6584 10.488C26.3544 10.84 26.0664 11.184 25.7944 11.52C25.5224 11.856 25.3144 12.12 25.1704 12.312C25.1224 12.376 25.0824 12.408 25.0504 12.408C25.0184 12.408 25.0024 12.368 25.0024 12.288C25.0024 12.16 25.0424 12.04 25.1224 11.928C25.4264 11.544 25.7624 11.112 26.1304 10.632C26.5144 10.152 26.8584 9.712 27.1624 9.312C27.4664 8.896 27.6584 8.624 27.7384 8.496C27.9144 8.464 28.1704 8.416 28.5064 8.352C28.8584 8.288 29.0984 8.2 29.2264 8.088C29.2744 8.04 29.3224 8.016 29.3704 8.016C29.4024 8.016 29.4184 8.048 29.4184 8.112C29.4344 8.16 29.4184 8.216 29.3704 8.28C29.2744 8.376 29.1304 8.584 28.9384 8.904C28.7624 9.224 28.5624 9.592 28.3384 10.008C28.1144 10.424 27.8984 10.824 27.6904 11.208C27.8504 10.968 28.0584 10.688 28.3144 10.368C28.5864 10.032 28.8824 9.712 29.2024 9.408C29.5224 9.088 29.8424 8.824 30.1624 8.616C30.4984 8.408 30.8104 8.304 31.0984 8.304C31.3064 8.304 31.4824 8.352 31.6264 8.448C31.7704 8.528 31.8824 8.68 31.9624 8.904C32.0104 9.016 32.0344 9.144 32.0344 9.288C32.0344 9.56 31.9624 9.824 31.8184 10.08C31.6904 10.32 31.5944 10.504 31.5304 10.632C31.5144 10.68 31.4584 10.728 31.3624 10.776C31.2664 10.808 31.2264 10.792 31.2424 10.728C31.2584 10.648 31.2664 10.568 31.2664 10.488C31.2824 10.408 31.2904 10.32 31.2904 10.224C31.2904 9.952 31.2344 9.704 31.1224 9.48C31.0264 9.256 30.8424 9.144 30.5704 9.144C30.3144 9.144 30.0024 9.304 29.6344 9.624C29.2664 9.944 28.8984 10.312 28.5304 10.728C28.0664 11.272 27.6984 11.792 27.4264 12.288C27.1544 12.768 26.9304 13.24 26.7544 13.704C26.6584 13.96 26.5624 14.216 26.4664 14.472C26.3704 14.712 26.2984 14.904 26.2504 15.048C26.0424 15.064 25.8344 15.112 25.6264 15.192C25.4184 15.288 25.2744 15.336 25.1944 15.336ZM32.5494 15.072C32.3894 15.072 32.2534 15.04 32.1414 14.976C32.0294 14.912 31.9734 14.792 31.9734 14.616C31.9734 14.392 32.0294 14.128 32.1414 13.824C32.2694 13.52 32.4054 13.216 32.5494 12.912C32.6934 12.608 32.8134 12.36 32.9094 12.168C32.9894 12.024 33.0934 11.8 33.2214 11.496C33.3654 11.176 33.5094 10.848 33.6534 10.512C33.8134 10.16 33.9414 9.864 34.0374 9.624C34.1494 9.384 34.2054 9.264 34.2054 9.264C34.0614 9.424 33.8694 9.648 33.6294 9.936C33.4054 10.224 33.1574 10.528 32.8854 10.848C32.6294 11.152 32.3894 11.44 32.1654 11.712C31.9574 11.984 31.8054 12.184 31.7094 12.312C31.6614 12.376 31.6214 12.408 31.5894 12.408C31.5574 12.408 31.5414 12.368 31.5414 12.288C31.5414 12.16 31.5814 12.04 31.6614 11.928C31.8534 11.688 32.0854 11.4 32.3574 11.064C32.6294 10.712 32.9014 10.36 33.1734 10.008C33.4614 9.656 33.7094 9.344 33.9174 9.072C33.7894 9.072 33.6214 9.08 33.4134 9.096C33.2214 9.112 33.0454 9.136 32.8854 9.168C32.7254 9.184 32.6374 9.192 32.6214 9.192C32.5414 9.192 32.5494 9.128 32.6454 9C32.7414 8.872 32.8694 8.744 33.0294 8.616C33.1894 8.488 33.3094 8.424 33.3894 8.424C33.4054 8.424 33.5334 8.432 33.7734 8.448C34.0134 8.448 34.1894 8.448 34.3014 8.448C34.6214 8.016 34.9334 7.52 35.2374 6.96C35.5574 6.4 35.8694 5.784 36.1734 5.112C36.3014 5.096 36.5174 5.008 36.8214 4.848C37.1414 4.672 37.3894 4.496 37.5654 4.32C37.6454 4.24 37.7094 4.2 37.7574 4.2C37.8534 4.2 37.8534 4.264 37.7574 4.392C37.6454 4.52 37.4534 4.792 37.1814 5.208C36.9094 5.608 36.6054 6.096 36.2694 6.672C35.9334 7.232 35.6134 7.824 35.3094 8.448H37.2534C37.4294 8.448 37.5174 8.472 37.5174 8.52C37.5174 8.584 37.3974 8.648 37.1574 8.712C36.8854 8.792 36.5974 8.84 36.2934 8.856C36.0054 8.872 35.7334 8.904 35.4774 8.952C35.2374 9 35.0614 9.104 34.9494 9.264C34.8534 9.376 34.7174 9.616 34.5414 9.984C34.3654 10.352 34.1734 10.776 33.9654 11.256C33.7734 11.72 33.6054 12.192 33.4614 12.672C33.3174 13.136 33.2294 13.528 33.1974 13.848V13.944C33.1974 14.072 33.2374 14.176 33.3174 14.256C33.3974 14.336 33.4774 14.376 33.5574 14.376C33.7654 14.376 34.0294 14.248 34.3494 13.992C34.6854 13.736 35.0294 13.432 35.3814 13.08C35.7334 12.712 36.0374 12.376 36.2934 12.072C36.4054 11.944 36.5014 11.824 36.5814 11.712C36.6774 11.6 36.7334 11.528 36.7494 11.496C36.7814 11.56 36.7974 11.608 36.7974 11.64C36.7974 11.736 36.7654 11.84 36.7014 11.952C36.6534 12.064 36.5974 12.16 36.5334 12.24C36.2294 12.64 35.8614 13.064 35.4294 13.512C34.9974 13.944 34.5334 14.312 34.0374 14.616C33.5574 14.92 33.0614 15.072 32.5494 15.072ZM37.7153 15.192C37.0593 15.192 36.6033 15.064 36.3473 14.808C36.0913 14.552 35.9633 14.24 35.9633 13.872C35.9633 13.408 36.0833 12.912 36.3232 12.384C36.5793 11.856 36.8193 11.408 37.0433 11.04C37.2993 10.656 37.6433 10.256 38.0753 9.84C38.5073 9.424 38.9793 9.072 39.4913 8.784C40.0033 8.496 40.4993 8.352 40.9793 8.352C41.3953 8.352 41.6833 8.456 41.8433 8.664C42.0033 8.856 42.0833 9.088 42.0833 9.36C42.0833 9.856 41.9313 10.264 41.6273 10.584C41.3393 10.904 40.9793 11.168 40.5473 11.376C40.1153 11.568 39.6993 11.728 39.2993 11.856C39.0593 11.92 38.7793 11.984 38.4593 12.048C38.1393 12.112 37.8353 12.144 37.5473 12.144C37.4353 12.432 37.3473 12.712 37.2833 12.984C37.2193 13.256 37.1873 13.504 37.1873 13.728C37.1873 14 37.2513 14.224 37.3793 14.4C37.5233 14.576 37.7553 14.664 38.0753 14.664C38.2033 14.664 38.3553 14.648 38.5312 14.616C38.7073 14.584 38.8993 14.536 39.1073 14.472C39.5873 14.312 40.0593 14.056 40.5233 13.704C40.9873 13.352 41.4113 12.976 41.7953 12.576C42.1953 12.16 42.4993 11.816 42.7073 11.544C42.7553 11.592 42.7793 11.648 42.7793 11.712C42.7793 11.792 42.7233 11.92 42.6113 12.096C42.2913 12.544 41.8753 13.008 41.3633 13.488C40.8513 13.968 40.2833 14.376 39.6593 14.712C39.0353 15.032 38.3873 15.192 37.7153 15.192ZM37.7393 11.664C37.9473 11.68 38.1793 11.68 38.4353 11.664C38.7073 11.632 38.9713 11.576 39.2273 11.496C39.8833 11.304 40.3553 11 40.6433 10.584C40.9473 10.152 41.0993 9.768 41.0993 9.432C41.0993 9.24 41.0593 9.08 40.9793 8.952C40.8993 8.824 40.7713 8.76 40.5953 8.76C40.1313 8.76 39.7153 8.936 39.3473 9.288C38.9793 9.624 38.6593 10.016 38.3873 10.464C38.1153 10.912 37.8993 11.312 37.7393 11.664ZM42.4678 15.36C42.4038 15.36 42.4038 15.288 42.4678 15.144C42.5478 15 42.6198 14.84 42.6838 14.664C42.7638 14.488 42.8438 14.296 42.9238 14.088C43.0838 13.704 43.2598 13.272 43.4518 12.792C43.6438 12.312 43.8278 11.848 44.0038 11.4C44.1798 10.936 44.3318 10.544 44.4598 10.224C44.6038 9.888 44.6998 9.672 44.7478 9.576C44.5238 9.816 44.2518 10.12 43.9318 10.488C43.6278 10.84 43.3398 11.184 43.0678 11.52C42.7958 11.856 42.5878 12.12 42.4438 12.312C42.3958 12.376 42.3558 12.408 42.3238 12.408C42.2918 12.408 42.2758 12.368 42.2758 12.288C42.2758 12.16 42.3158 12.04 42.3958 11.928C42.6998 11.544 43.0358 11.112 43.4038 10.632C43.7878 10.152 44.1318 9.712 44.4358 9.312C44.7398 8.896 44.9318 8.624 45.0118 8.496C45.1878 8.464 45.4438 8.416 45.7798 8.352C46.1318 8.288 46.3718 8.2 46.4998 8.088C46.5478 8.04 46.5958 8.016 46.6438 8.016C46.6758 8.016 46.6918 8.048 46.6918 8.112C46.7078 8.16 46.6918 8.216 46.6438 8.28C46.5478 8.392 46.3798 8.656 46.1398 9.072C45.9158 9.472 45.6678 9.92 45.3958 10.416C45.1398 10.912 44.8998 11.36 44.6758 11.76C44.8678 11.504 45.0758 11.256 45.2998 11.016C45.5238 10.776 45.7398 10.544 45.9478 10.32C46.1398 10.128 46.4038 9.888 46.7398 9.6C47.0758 9.312 47.4278 9.048 47.7958 8.808C48.1638 8.568 48.4838 8.432 48.7558 8.4C48.8198 8.384 48.8758 8.376 48.9238 8.376C48.9878 8.376 49.0358 8.376 49.0678 8.376C49.4198 8.376 49.5958 8.504 49.5958 8.76C49.5958 8.952 49.4918 9.208 49.2838 9.528C49.1718 9.704 48.9958 10 48.7558 10.416C48.5318 10.816 48.2998 11.256 48.0598 11.736C47.8358 12.2 47.6358 12.64 47.4598 13.056C47.2998 13.456 47.2198 13.752 47.2198 13.944C47.2198 14.168 47.3318 14.28 47.5558 14.28C47.8278 14.28 48.1238 14.144 48.4438 13.872C48.7798 13.6 49.1398 13.256 49.5238 12.84C49.9078 12.408 50.2918 11.952 50.6758 11.472C50.7078 11.504 50.7238 11.56 50.7238 11.64C50.7238 11.752 50.6838 11.864 50.6038 11.976C50.5398 12.072 50.4758 12.16 50.4118 12.24C50.2518 12.448 50.0358 12.712 49.7638 13.032C49.5078 13.336 49.2438 13.64 48.9718 13.944C48.6998 14.232 48.4518 14.464 48.2278 14.64C48.0678 14.752 47.8598 14.872 47.6038 15C47.3478 15.128 47.0918 15.192 46.8358 15.192C46.5478 15.192 46.3478 15.12 46.2358 14.976C46.1238 14.816 46.0678 14.624 46.0678 14.4C46.0678 14.144 46.1158 13.872 46.2118 13.584C46.3078 13.296 46.4118 13.024 46.5238 12.768C46.6518 12.496 46.7478 12.296 46.8118 12.168C47.0998 11.608 47.3638 11.08 47.6038 10.584C47.8438 10.088 48.0118 9.736 48.1078 9.528C48.1558 9.432 48.1798 9.352 48.1798 9.288C48.1798 9.176 48.0918 9.168 47.9158 9.264C47.7398 9.36 47.5238 9.504 47.2678 9.696C47.0278 9.888 46.8038 10.08 46.5958 10.272C46.3878 10.448 46.2518 10.568 46.1878 10.632C45.5958 11.256 45.0758 11.952 44.6278 12.72C44.1958 13.472 43.8278 14.248 43.5238 15.048C43.3158 15.064 43.1078 15.12 42.8998 15.216C42.6918 15.312 42.5478 15.36 42.4678 15.36ZM51.6137 15.192C50.9577 15.192 50.5017 15.064 50.2457 14.808C49.9897 14.552 49.8617 14.24 49.8617 13.872C49.8617 13.408 49.9817 12.912 50.2217 12.384C50.4777 11.856 50.7177 11.408 50.9417 11.04C51.1977 10.656 51.5417 10.256 51.9737 9.84C52.4057 9.424 52.8777 9.072 53.3897 8.784C53.9017 8.496 54.3977 8.352 54.8777 8.352C55.2937 8.352 55.5817 8.456 55.7417 8.664C55.9017 8.856 55.9817 9.088 55.9817 9.36C55.9817 9.856 55.8297 10.264 55.5257 10.584C55.2377 10.904 54.8777 11.168 54.4457 11.376C54.0137 11.568 53.5977 11.728 53.1977 11.856C52.9577 11.92 52.6777 11.984 52.3577 12.048C52.0377 12.112 51.7337 12.144 51.4457 12.144C51.3337 12.432 51.2457 12.712 51.1817 12.984C51.1177 13.256 51.0857 13.504 51.0857 13.728C51.0857 14 51.1497 14.224 51.2777 14.4C51.4217 14.576 51.6537 14.664 51.9737 14.664C52.1017 14.664 52.2537 14.648 52.4297 14.616C52.6057 14.584 52.7977 14.536 53.0057 14.472C53.4857 14.312 53.9577 14.056 54.4217 13.704C54.8857 13.352 55.3097 12.976 55.6937 12.576C56.0937 12.16 56.3977 11.816 56.6057 11.544C56.6537 11.592 56.6777 11.648 56.6777 11.712C56.6777 11.792 56.6217 11.92 56.5097 12.096C56.1897 12.544 55.7737 13.008 55.2617 13.488C54.7497 13.968 54.1817 14.376 53.5577 14.712C52.9337 15.032 52.2857 15.192 51.6137 15.192ZM51.6377 11.664C51.8457 11.68 52.0777 11.68 52.3337 11.664C52.6057 11.632 52.8697 11.576 53.1257 11.496C53.7817 11.304 54.2537 11 54.5417 10.584C54.8457 10.152 54.9977 9.768 54.9977 9.432C54.9977 9.24 54.9577 9.08 54.8777 8.952C54.7977 8.824 54.6697 8.76 54.4937 8.76C54.0297 8.76 53.6137 8.936 53.2457 9.288C52.8777 9.624 52.5577 10.016 52.2857 10.464C52.0137 10.912 51.7977 11.312 51.6377 11.664ZM56.3663 15.336C56.3023 15.336 56.3023 15.272 56.3663 15.144C56.4463 15 56.5183 14.84 56.5823 14.664C56.6623 14.488 56.7423 14.296 56.8223 14.088C56.9823 13.704 57.1583 13.272 57.3503 12.792C57.5423 12.312 57.7263 11.848 57.9023 11.4C58.0783 10.936 58.2303 10.544 58.3583 10.224C58.5023 9.888 58.5983 9.672 58.6463 9.576C58.4223 9.816 58.1503 10.12 57.8303 10.488C57.5263 10.84 57.2383 11.184 56.9663 11.52C56.6943 11.856 56.4863 12.12 56.3423 12.312C56.2943 12.376 56.2543 12.408 56.2223 12.408C56.1903 12.408 56.1743 12.368 56.1743 12.288C56.1743 12.16 56.2143 12.04 56.2943 11.928C56.5983 11.544 56.9343 11.112 57.3023 10.632C57.6863 10.152 58.0303 9.712 58.3343 9.312C58.6383 8.896 58.8303 8.624 58.9103 8.496C59.0863 8.464 59.3423 8.416 59.6783 8.352C60.0303 8.288 60.2703 8.2 60.3983 8.088C60.4463 8.04 60.4943 8.016 60.5423 8.016C60.5743 8.016 60.5903 8.048 60.5903 8.112C60.6063 8.16 60.5903 8.216 60.5423 8.28C60.4463 8.376 60.3023 8.584 60.1103 8.904C59.9343 9.224 59.7343 9.592 59.5103 10.008C59.2863 10.424 59.0703 10.824 58.8623 11.208C59.0223 10.968 59.2303 10.688 59.4863 10.368C59.7583 10.032 60.0543 9.712 60.3743 9.408C60.6943 9.088 61.0143 8.824 61.3343 8.616C61.6703 8.408 61.9823 8.304 62.2703 8.304C62.4783 8.304 62.6543 8.352 62.7983 8.448C62.9423 8.528 63.0543 8.68 63.1343 8.904C63.1823 9.016 63.2063 9.144 63.2063 9.288C63.2063 9.56 63.1343 9.824 62.9903 10.08C62.8623 10.32 62.7663 10.504 62.7023 10.632C62.6863 10.68 62.6303 10.728 62.5343 10.776C62.4383 10.808 62.3983 10.792 62.4143 10.728C62.4303 10.648 62.4383 10.568 62.4383 10.488C62.4543 10.408 62.4622 10.32 62.4622 10.224C62.4622 9.952 62.4062 9.704 62.2943 9.48C62.1983 9.256 62.0143 9.144 61.7422 9.144C61.4863 9.144 61.1743 9.304 60.8063 9.624C60.4383 9.944 60.0703 10.312 59.7023 10.728C59.2383 11.272 58.8703 11.792 58.5983 12.288C58.3263 12.768 58.1023 13.24 57.9263 13.704C57.8303 13.96 57.7343 14.216 57.6383 14.472C57.5423 14.712 57.4703 14.904 57.4223 15.048C57.2143 15.064 57.0063 15.112 56.7983 15.192C56.5903 15.288 56.4463 15.336 56.3663 15.336Z" fill="white"/>
</svg>
